# Alias OBJ Model File
# Exported from SketchUp, (c) 2000-2012 Trimble Navigation Limited
# File units = meters

mtllib OBJTest2.mtl

g Mesh1 Model

usemtl Color_A01
v 0 0 -0
vt 0 0
vn 0 -1 -0
v 0 0 -1
vt 0 39.3701
v 1 0 -1
vt -39.3701 39.3701
v 1 0 -0
vt -39.3701 0
f 1/1/1 2/2/1 3/3/1 4/4/1 

vn -1 0 -0
v 0 1 -0
v 0 1 -1
f 2/4/2 1/1/2 5/2/2 6/3/2 

vn 0 0 1
vt 39.3701 0
v 1 1 -0
vt 39.3701 39.3701
f 1/1/3 4/5/3 7/6/3 5/2/3 

vn 1 0 -0
v 1 1 -1
f 4/1/4 3/5/4 8/6/4 7/2/4 

vn 0 0 -1
f 3/4/5 2/1/5 6/2/5 8/3/5 

f 5/1/1 6/2/1 8/3/1 7/4/1 

g Mesh2 Model

usemtl Color_E02
v 2 0 -1
v 2 0 -0
v 2 1 -0
v 2 1 -1
f 9/4/2 10/1/2 11/2/2 12/3/2 

vt -78.7402 0
vt -78.7402 39.3701
v 3 0 -1
vt -118.11 39.3701
v 3 0 -0
vt -118.11 0
f 10/7/1 9/8/1 13/9/1 14/10/1 

v 3 1 -1
f 13/10/5 9/7/5 12/8/5 15/9/5 

v 3 1 -0
f 11/7/1 12/8/1 15/9/1 16/10/1 

f 14/1/4 13/5/4 15/6/4 16/2/4 

vt 78.7402 0
vt 118.11 0
vt 118.11 39.3701
vt 78.7402 39.3701
f 10/11/3 14/12/3 16/13/3 11/14/3 

g Mesh3 Model

usemtl Color_G11
v 2 0 -2
vt -78.7402 78.7402
v 2 0 -3
vt -78.7402 118.11
v 3 0 -3
vt -118.11 118.11
v 3 0 -2
vt -118.11 78.7402
f 17/15/1 18/16/1 19/17/1 20/18/1 

v 2 1 -2
v 2 1 -3
f 18/10/2 17/7/2 21/8/2 22/9/2 

v 3 1 -2
f 17/11/3 20/12/3 23/13/3 21/14/3 

v 3 1 -3
f 20/11/4 19/12/4 24/13/4 23/14/4 

f 19/10/5 18/7/5 22/8/5 24/9/5 

f 21/15/1 22/16/1 24/17/1 23/18/1 

g Mesh4 Model

usemtl Color_I16
v 1 0 -3
v 0 0 -3
v 0 1 -3
v 1 1 -3
f 25/4/5 26/1/5 27/2/5 28/3/5 

v 0 0 -2
vt 0 78.7402
vt 0 118.11
vt -39.3701 118.11
v 1 0 -2
vt -39.3701 78.7402
f 29/19/1 26/20/1 25/21/1 30/22/1 

v 0 1 -2
f 26/10/2 29/7/2 31/8/2 27/9/2 

v 1 1 -2
f 29/1/3 30/5/3 32/6/3 31/2/3 

f 30/11/4 25/12/4 28/13/4 32/14/4 

f 31/19/1 27/20/1 28/21/1 32/22/1 

